<?xml version="1.0" encoding="UTF-8"?>
<svg id="katman_2" data-name="katman 2" xmlns="http://www.w3.org/2000/svg" viewBox="0 0 256.59 256.59">
  <defs>
    <style>
      .cls-1 {
        fill: #eef7fd;
      }

      .cls-1, .cls-2, .cls-3 {
        stroke-width: 0px;
      }

      .cls-2 {
        fill: #fff;
      }

      .cls-2, .cls-3 {
        fill-rule: evenodd;
      }

      .cls-3 {
        fill: #1d0e46;
      }
    </style>
  </defs>
  <g id="Layer_1" data-name="Layer 1">
    <circle class="cls-1" cx="128.3" cy="128.3" r="128.3"/>
    <g>
      <path class="cls-3" d="m135.41,28.2h1.69v1.55c.19.12.26.28.57.31,0,0,.02-.02.03-.03.16-.06.73-1.06.7-1.22-.07-.16-.15-.33-.22-.49.18-.29.36-.57.54-.85h.06v2.85c0,.33-.07.82.06,1.06.36.1.88.29.7.75-.81.06-1.58.56-1.69,1.19-.03.17.09.39.1.65h-.19v6.37h.57v.16h-.16c0,.05-.02.1-.03.15h-.19v.16c-.16.01-.12,0-.19.08-.09.21.26,1.2.19,1.48-.17.64-.1,1.59-.1,2.35v4.3h.99c.28.34.55.67.83,1.01h1.24c.06.1.12.21.19.31h.86c-.06.3-.13.6-.19.91h.06c.11.02.21.04.32.05-.07.28-.15.55-.22.83h.42c-.05.31-.11.62-.16.93h1.75c-.09-.3-.17-.6-.25-.9h.41c-.05-.29-.1-.59-.16-.88h.38c-.09-.31-.19-.62-.29-.93h.67v3.91c.27.14.53.28.8.41,0,.1-.02.21-.03.31h-.35v.23c-.57.11-1.76.79-1.4,1.47.11.18.38.26.57.36-.03.27-.24.39-.35.57v1.68h-.32v.47c.11,0,.21.02.32.02v13.64h-.25v.49h.32v1.73h-.19c.11.23.21.45.32.67v2.1c-.5.2-1.77,1.39-1.18,2.04-.1.12-.21.24-.32.36h-.45c.01.71-.07,1.37-.19,1.89h-.16v25.93h.48v4.89c-.16.27-.29.62-.35,1.01-.03.17.12.2.09.31-.34,1.46-.09,3.58-.09,5.2h1.88v.23h-.19c.01,1.07.29,3.99-.25,4.58h-1.43v1.42c.45-.04.79-.46,1.02-.7,0-.02-.02-.03-.03-.05-.34.03-.5.19-.76.29.04-.08.09-.16.13-.23-.05-.06-.11-.12-.16-.18.48.03.47-.11.32-.36.17.11.34.23.51.34,0-.23.03-.32.13-.44.02,0,.04-.02.06-.02.26,0,.36.03.51.1.05.16.09.32-.03.44-.14.23-.65.36-.89.52-.15.15-.29.29-.44.44-.12,0-.23.02-.35.03v19.77c.14.06.28.12.41.18,0,.4-.18,2.39.03,2.59.49.18,1.38-.03,1.53-.31v-.1c-.08-.28-.31-.28-.54-.42.45.04.61.22.96.34.38-.1.56-.35.45-.75-.34-.29-.6-.21-1.18-.29-.11-.19-.08-.28.07-.44.26-.07.68-.08.99-.18h-.06c-.12-.1-.2-.13-.29-.26.06-.26.75-.52,1.02-.47.29.04.54.16.73.28.05.16.05.24,0,.39.37.05.58.2.8.36,0,.09-.02.17-.03.26-1.05.28-.79,1.22.03.93-.01.29.04.44.16.59.24.06.44.08.73.03.06-.06.13-.12.19-.18.05-.13,0-.26-.03-.39.2.09.32.11.57.05.21-.21.34-.39.22-.75-.18-.1-.58-.25-.73-.39.18-.31.53-.29.83-.49-.1-.11-.17-.15-.19-.34.19-.2.71-.52.92-.31.21.09.42.17.64.26,0,.2-.05.25-.19.34.01.02.02.03.03.05.39.03.68.18.89.36,0,.09-.02.19-.03.28-.34-.01-.64.02-.76.18-.14.13-.24.43-.06.59.11.19.35.27.7.26-.01.22.02.34.19.41.2.16.73.11.86-.08.09-.08.1-.17.1-.33.34,0,.46-.05.64-.16.1-.25.12-.43.03-.7-.14-.08-.57-.2-.67-.31v-.08c.12-.33.49-.26.76-.44-.08-.1-.18-.22-.09-.37.11-.21.69-.46.83-.33.19.08.38.16.57.23.1.26-.06.36-.1.49.47,0,.76.13.89.41-.17.2-.56.18-.73.36-.49.52.21.78.67.85,0,.21.04.32.13.44.23.05.47.05.7,0,.19-.11.21-.18.19-.41.28.07.53-.04.7-.13.09-.23.15-.55-.06-.72-.12-.14-.42-.15-.67-.18-.02-.09-.04-.17-.06-.26.28-.31.69-.21,1.05-.44-.06-.04-.13-.09-.19-.13.01-.06.02-.12.03-.18.1-.17.42-.31.67-.36v4.01c.21.12.53.32.57.57-.16.04-.13.05-.13.21-.28.03-.24.17-.42.23-.35,0-.7.02-1.05.03-.08.12-.17.24-.25.36-.07.24.1.35,0,.54-.5.16-.32,1.16-.32,1.71v5.23c.15.05.14.02.16.18-.12.15-.1.97-.16,1.27-.21.04-.19,0-.29.18.06.17.13.34.19.52-.06.03-.13.05-.19.08v8.9c.06.05.13.1.19.16-.01.24-.02.48-.03.72.23.33.32.23.32.85,1.16-.45,3.51-1.06,3.28-2.46-.17-.02-.22-.03-.29-.13v-.23c.09-.13.22-.1.29-.26h-.06c-.32-.09-.64-.17-.96-.26-.04-.12-.06-.17-.03-.29.17-.17.64-.25.89-.34,0-.53.17-.43.29-.7.24-.54-.6-1.48-.48-1.89.28-.43.55-.86.83-1.29.02,0,.04.02.07.02.22.43.45.86.67,1.29-.13.4-.28.79-.41,1.19-.09.49.22.81.22,1.37.31.08.69.22.92.36,0,.08-.02.16-.03.23-.18.27-.83.16-.99.41.14.03.19.04.25.13v.28c-.66.25.08,1.45.51,1.55,3.01.7,6.18,3.31,6.21,6.49h.73c.19-1.24,1.66-1.32,1.85.03h.48v.72c-.63.05-.75.69-.41,1.06.17.04.29.08.54.08.54-.23.39-.79.73-1.16.02,0,.04.02.06.02.09.11.17.23.26.34.07.23-.09.43.06.64.28.08.56.12.89.05.4-.43.1-.85-.35-1.06v-.62h.42c.02-.51.31-.95.89-1.01v3.75s.02.03.03.05c.24.04.43.14.51.31v.34c-.23.37-1.01.3-1.31.65.05.2.24.35.16.54-.02.03-.04.05-.06.08h-.29c-.01.05-.02.1-.03.16h-.25c0,.26.06.41.13.54v12.42c.02.1.04.21.06.31-.15.16-.3.31-.44.47-.17.5.22,1.14-.38,1.42-.12-.02-.23-.05-.35-.08v.05c-.02,1-.04,2-.06,3v7.01c.06.2.22.25.22.57.28,0,.37.02.51.1v.54c.18.07.36.14.54.21v1.14c-.09.11-.17.23-.25.34-.08.22.11.24.16.34v1.01c.69-.01,1.73-.1,2.04.21v.05s-.06.02-.09.02c-.05,0-.11.02-.16.03v.21c-.48.1-1.66.66-1.3,1.32.15.28.29.34.13.8-.21.58-.73.95-1.31,1.24.12.16.1.48.09.75h18.31v1.55h5.32v1.5h5.32v1.5H56.24v-1.5h5.32v-1.5h5.32v-1.55h18.31c0-.27.07-.72.03-.8-.74-.25-1.23-.88-1.34-1.66-.04-.25.16-.21.22-.34.35-.66-.82-1.22-1.31-1.32v-.21c-.07,0-.15-.02-.22-.03,0-.03-.02-.07-.03-.1.43-.24,1.29-.19,2.04-.18v-1.01c.04-.09.23-.12.16-.34-.09-.11-.17-.22-.25-.34v-1.14c.18-.07.36-.14.54-.21-.02-.28,0-.5.13-.65h.38c0-.31.16-.37.22-.57v-6.68c0-.64.07-1.44-.06-1.99v-1.4c-.11.02-.23.05-.35.08-.59-.29-.23-.92-.38-1.42-.15-.16-.3-.31-.44-.47.02-.11.04-.23.06-.34v-12.39c.06-.14.13-.28.13-.54-.09,0-.19-.02-.29-.03v-.13c-.1,0-.19-.02-.29-.03-.03-.02-.06-.03-.1-.05.02-.24.21-.37.16-.54-.12-.36-.97-.37-1.31-.65-.02-.47.18-.55.57-.67v-3.78c.58.06.87.5.89,1.01h.41c0,.23.02.52-.06.67-.42.11-.56.47-.41.88.24.27.78.18,1.08.02.13-.43-.04-.68.32-.96h.03c.12.35.24,1.01.67,1.14.27.1.53-.04.67-.13.21-.43.05-.93-.51-.98v-.72h.48c.06-.42.25-.85.67-.98.73-.17,1.1.5,1.18.96h.73c-.05-2.44,2.01-4.5,3.76-5.51.55-.27,1.1-.53,1.66-.8.97-.38,1.58-.43,1.59-1.66-.16-.02-.22-.03-.29-.13v-.29c.09-.03.17-.05.25-.08,0-.03-.02-.07-.03-.1-.4-.01-.78-.14-.99-.31,0-.22.05-.25.16-.36.26-.08.51-.16.77-.23,0-.56.3-.88.22-1.37-.14-.39-.28-.78-.41-1.17.23-.45.47-.9.7-1.34.02,0,.04.02.06.02.27.42.53.84.8,1.27.12.41-.71,1.34-.48,1.89.09.08.19.16.29.23.09.16-.07.36.06.47.22.18.68.11.83.36.05.13-.02.21-.1.31-.32.07-.64.14-.96.21v.1c.17.04.22.07.32.16-.01.1-.02.19-.03.28-.1.03-.19.05-.29.08-.2,1.43,2.1,1.98,3.28,2.46,0-.62.06-.52.32-.85-.01-.24-.02-.48-.03-.72.06-.05.13-.1.19-.16v-6.06c0-.95-.02-1.9-.03-2.85-.09-.1-.13-.05-.16-.23.19-.13.18-.35.13-.54-.21.02-.26,0-.22-.16-.3-.39.09-.74-.03-1.01-.04-.09-.11-.08-.13-.26.12-.02.1,0,.16-.05v-5.12c0-.7.16-1.56-.38-1.84.04-.37.11-.7-.25-.85-.33,0-.66-.02-.99-.03-.18-.06-.14-.2-.41-.23-.01-.2-.07-.17-.13-.31.19-.16.38-.33.57-.49v-3.98c.3.06.52.21.7.36,0,.21-.04.24-.19.31.01.02.02.03.03.05.46.02.87.12,1.02.41,0,.13-.02.18-.13.23-.17.06-.42.04-.54.13-.31.16-.23.61-.06.83.18.06.4.13.64.08-.02.25.02.26.16.41.3.05.57.06.8-.05.02-.12.04-.24.06-.36.67,0,1.1-.52.67-.96-.16-.16-.57-.12-.73-.29.2-.4.54-.24.92-.47-.16-.06-.19-.12-.19-.31.17-.25.52-.26.73-.47.26.13.56.27.77.44,0,.2-.04.25-.13.37.3.2.57.18.8.44,0,.04-.02.09-.03.13-.3.06-.55.1-.67.31-.19.25-.03.55.13.72.17.04.28.08.54.08-.01.22.02.34.19.41.21.17.74.11.86-.08.09-.08.1-.17.1-.33.41,0,.65-.11.77-.34.09-.24-.05-.4-.13-.57-.22-.06-.51-.09-.8-.16.01-.09.02-.17.03-.26.17-.28.61-.23.89-.41-.19-.11-.23-.25-.1-.41.26-.06.52-.16.67-.31.42.2,1.03.32.61.78.3.2.65.18.83.49-.01.03-.02.05-.03.08-.67.02-1.11.81-.42,1.06.19.09.36.02.51-.05-.04.14-.07.26-.03.41.07.05.15.1.22.16.31.08.55.03.77-.08.06-.16.1-.31.1-.54.47.16.91-.13.67-.62-.12-.24-.47-.18-.64-.36,0-.06-.02-.12-.03-.18.21-.26.51-.19.8-.39,0-.02-.02-.03-.03-.05-.04-.16-.02-.26.1-.36.14-.16.46-.18.67-.28.36.05.97.19,1.02.52-.11.11-.17.17-.35.23v.02c.53-.01.83.09,1.11.26,0,.16,0,.18-.03.31-.03,0-.06.02-.1.02-.5.14-.92-.1-1.11.34-.12.22.06.49.16.62.1.03.19.05.29.08.36-.11.5-.29.96-.34v.03h-.06c-.2.11-.57.21-.48.47.13.39,1.04.44,1.59.33,0-.87-.02-1.74-.03-2.61.14-.05.28-.1.42-.16v-19.77s-.38-.03-.45-.08c-.12-.13-.23-.26-.35-.39-.3-.2-.67-.34-.96-.54-.03-.2,0-.32.1-.47.12-.03.3-.08.44-.03.19.07.21.2.19.44.17-.11.34-.23.51-.34-.04.11-.09.23-.13.34.15,0,.3.02.45.03-.05.06-.1.12-.16.18.04.08.09.16.13.23-.22-.08-.56-.36-.8-.23.23.24.56.66,1.02.7v-1.42c-.71.01-1.32.03-1.69-.21v-4.37h-.19v-.23h1.88c0-1.62.25-3.75-.1-5.2-.03-.11.12-.14.1-.31-.06-.39-.2-.74-.35-1.01v-4.89h.48v-25.93h-.16c-.11-.52-.19-1.18-.19-1.89-.17,0-.36.01-.45-.05-.1-.1-.21-.21-.32-.31.67-.74-.75-1.73-1.18-2.07v-2.07c.1-.22.21-.45.32-.67h-.19v-1.73h.32v-.49h-.25c0-4.55.02-9.11.03-13.66h.29v-.47h-.32v-1.68c-.06-.1-.31-.3-.35-.41-.05-.15.07-.19.13-.26.24-.05.34-.13.48-.26.02-.85-.62-1.31-1.43-1.47v-.23c-.13,0-.26-.02-.38-.03v-.31c.27-.14.53-.28.8-.41v-3.88h.67c-.09.31-.19.62-.29.93h.38c-.05.29-.11.59-.16.88h.41c-.09.3-.17.6-.25.9h1.75c-.05-.31-.11-.62-.16-.93h.42c-.08-.28-.15-.55-.22-.83,0,0,.02-.02.03-.03.12,0,.23-.02.35-.03-.06-.3-.13-.6-.19-.91h.86c.06-.1.13-.21.19-.31.4,0,1.02.06,1.31-.05.27-.32.53-.64.8-.96h.96v-4.32c0-.75.07-1.7-.1-2.33-.07-.26.24-1.26.19-1.53-.07,0-.13-.02-.19-.03v-.16c-.07,0-.15-.02-.22-.02v-.13h-.16v-.16h.57v-6.37h-.19c.03-1.31-.23-1.49-1.63-1.86-.01-.53.41-.59.8-.77.01-1.29.02-2.57.03-3.85,0,.02.02.03.03.05.18.27.36.54.54.8-.07.16-.15.33-.22.49-.05.28.2.29.29.44.23.37-.04.74.57.8.59-.3.47-1.08.45-1.86h1.69c-.05-2.76,1.48-4.67,3.41-5.85,1.31-.8,3.15-.84,3.22-2.66-.09-.05-.17-.1-.25-.16.02-.25.14-.26.29-.39-.02-.07-.04-.14-.06-.21-.65-.1-1.2-1.12-.54-1.58-.11-.1-.17-.1-.19-.28.3-.07.59-.14.89-.21v-.21c-.24-.03-.25-.08-.35-.21.01-.03.02-.07.03-.1.13-.12.31-.1.35-.31-1.04-1.31-.08-.94.1-2.04-.32,0-.39-.1-.54-.23.02-.53.54-.31.57-.72-.01-.02-.02-.04-.03-.05-.26-.03-.4-.11-.54-.23.04-.42.44-.37.57-.67v-5.59c-.75-.11-1.37-1.12-.61-1.58-.22.53.02,1.4.92,1.24.7-.12.94-.64.7-1.24.05.04.11.07.16.1.28.64.1,1.34-.77,1.47v5.59c.13.29.52.25.57.65-.13.18-.32.21-.57.28v.23c.24.03.36.1.51.18.04.1.1.22.03.34-.08.17-.23.23-.51.23.07.5.59.67.64,1.14.04.45-.5.63-.54,1.06.27.02.28.09.38.23-.02.05-.04.1-.06.16-.19.06-.28.05-.29.28.3.07.59.14.89.21v.1c-.1.14-.21.12-.1.23.29.74.1,1.31-.67,1.55-.02.25.08.28.25.42-.03.28-.2.21-.25.47.16.45.22.91.51,1.24.26.3.91.36,1.3.54.58.31,1.15.62,1.72.93,1.81,1.16,3.08,3.03,3.09,5.64Z"/>
      <g>
        <path class="cls-2" d="m104.12,171.93h1.53c0-.27-.04-.65.06-.83.36-.11.31-.45.29-.85h.48c.02-.15.03-.15.19-.18,0-3.13-.01-6.86,0-9.57h-.03c-.13.04-.13.05-.25,0-.02-.14-.06-.15-.13-.23-.25.01-.32.08-.48.02-.04-.36-.07-.65.03-.98-.1-.07-.19-.14-.29-.21.07-.07.07-.07.19-.1-.06-.19-.13-.38-.19-.57.28-.08.47-.26.61-.46.52-.78-.5-1.1-.89-1.48v-.08c.86-.49,1.19-1.5.13-2.04-.61.23-1.31.83-1.02,1.68.07.21.28.27.35.49-.51.27-1.08.95-.54,1.58.18.11.36.23.54.34-.07.18-.13.36-.19.54.09,0,.17.02.26.03-.19.25-.28.85-.16,1.22-.2,0-.22.03-.48.03-.04.22-.17.69-.25.85v8.95c.23.51.25,1.17.25,1.86Z"/>
        <path class="cls-2" d="m108.76,170.3v.7c.12.05.23.1.35.15v.78h.99v-.78c.12-.07.23-.14.35-.21v-.7h.48c.03-.15.05-.15.22-.18,0-3.14,0-6.88,0-9.6h-.03c-.08.03-.15.05-.22.08-.05-.1-.11-.19-.16-.28-.25.01-.39.09-.48,0-.17-.36-.06-.67,0-.98-.12-.05-.2-.1-.25-.21.06-.04.04-.03.16-.05-.03-.15-.23-.54-.13-.6,1.45-.94.37-1.28-.35-1.94v-.08c1.01-.54,1.05-1.38.16-2.04-.65.12-1.46,1-1.02,1.78.07.13.23.21.32.36-.19.14-.38.28-.57.41-.39.52-.09,1.37.54,1.47-.05.2-.11.4-.16.6h.26c-.23.36-.19.72-.19,1.24-.16-.01-.21.03-.45.03-.43,1.64-.25,4.16-.25,6.21,0,1.23-.15,2.71.09,3.8.12,0,.23.02.35.03Z"/>
        <path class="cls-2" d="m144.98,170.25v.72c.12.06.23.12.35.18v.78h.99c0-.21-.07-.66.06-.78.09-.06.19-.12.29-.18v-.7h.35c.17-.78.09-1.86.09-2.77v-4.97c0-.83.17-2.39-.7-2.3,0-.52,0-.86-.19-1.24h.26c-.05-.2-.11-.4-.16-.6.61-.11.96-.96.54-1.47-.19-.15-.38-.29-.57-.44.72-1.05.31-1.49-.61-2.12-.28.06-.38.23-.51.41-.61.87.05,1.14.57,1.66-.03.05-.06.1-.1.15-.93.25-1.33,1.53-.19,1.84-.06.18-.13.36-.19.54.05.04.1.07.16.1v.08c-.08.06-.17.12-.25.18.1.25.15.69-.03,1.01-.17-.06-.33-.1-.51-.03-.03.1-.05.17-.13.23-.07-.02-.15-.03-.22-.05.01,2.62,0,6.45,0,9.57.17.03.19.03.22.18h.48Z"/>
        <path class="cls-2" d="m149.44,170.25c0,.2-.06.62.06.72.09.05.19.1.29.16v.78h1.53c0-.68.03-1.33.25-1.84v-6.16c0-1.27.12-2.77-.29-3.65-.24,0-.25-.02-.44-.03.06-.46.06-.92-.19-1.24h.29v-.03c-.06-.18-.13-.36-.19-.54.51-.25,1.09-.91.54-1.52-.18-.13-.36-.26-.54-.39.07-.19.24-.23.32-.39.4-.85-.39-1.52-.99-1.76-1.32.72-.49,1.43.13,2.07-.22.49-1.38.6-.92,1.45.13.25.32.44.64.54-.06.19-.13.38-.19.57.14.03.12.03.19.1-.09.08-.19.16-.29.23.12.28-.05.67.06.88-.04.04-.09.09-.13.13-.19-.07-.3-.09-.48,0-.03.07-.06.14-.1.21-.07-.02-.15-.03-.22-.05,0,2.71,0,6.44,0,9.57.18.04.16.05.22.18h.45Z"/>
        <path class="cls-2" d="m87.74,197.26c0,2.2-.03,4.61-.03,7.04v3.13c.06.21.21.31.22.6.32,0,.41.03.57.13v.49h.99v-.6h.54c-.01-.76.52-.77.96-1.14.4.09.72.38,1.02.57.03.23,0,.39-.06.57.18,0,.36.02.54.02v.6h2.99c-.02-.34.03-.48.19-.65h.48c-.13-.25.06-.29.19-.49-.02-.04-.04-.07-.06-.1,0-.89-.02-1.78-.03-2.66-1.19-.2-2.46-1.12-3.06-1.84,0-.16.03-.2.1-.28.28.02.55.03.83.05.22-.03.44-.05.67-.08.2.04.4.09.61.13.26-.05.56-.17.92-.21,0-1.68.19-3.86-.13-4.97-.34,0-.49-.05-.67-.16-.08-.5-.22-.98-.29-1.27.11-.1.16-.09.16-.31-.11-.1-.21-.19-.32-.29v-.16h.57c-.16-.29-.32-.59-.48-.88.1-.41.19-.83.29-1.24.16-.76.04-1.72-.16-2.35-.65-2.11-1.86-2.98-3.38-4.32-1.93.93-5.05,3.48-3.98,6.31.23.6.61,1.01,1.02,1.45-.13.35-.25.69-.38,1.04.24-.01.35-.01.44.1-.02.03-.04.05-.06.08-.28.1-.2,1.29-.38,1.68h-.83Z"/>
        <path class="cls-2" d="m160.3,195.4v.18c-.2.11-.33.2-.32.49.12.03.09.02.16.08-.04.23-.11.2-.19.36-.03.3-.06.6-.09.91-.12.17-.5.08-.67.21-.16.25.02.9,0,1.11-.12,1.09-.13,2.54-.13,3.8.37.04.66.16.92.21.2-.04.4-.09.61-.13.23-.03,1.46.04,1.59.1v.23c-.3.26-.59.52-.89.78-.66.43-1.37.78-2.2,1.06,0,.39.09,2.62-.06,2.74.15.17.32.26.19.46v.03c.38-.01.48.04.67.16v.49h3c0-.21.02-.41.03-.62h.51v-.03c-.16-.25-.08-.49.1-.67.24-.1.66-.5.89-.39.51.17.94.46.92,1.09h.54v.6h.99c-.02-.31.02-.47.16-.62h.41c.01-.29.16-.39.22-.6v-3.13c0-2.43-.03-4.84-.03-7.04-.23,0-.7.04-.83-.05-.39-.34.03-1.26-.45-1.71.01-.03.02-.07.03-.1h.41c-.13-.35-.25-.71-.38-1.06.4-.25.62-.65.83-1.06,1.06-2.11-.51-4.37-1.85-5.46-.26-.21-1.69-1.28-1.98-1.16-.44.18-.85.6-1.15.91-1.25,1.27-1.99,2.4-2.39,4.45-.11.59,0,1.32.13,1.81.06.23.13.47.19.7-.16.29-.32.59-.48.88h.57Z"/>
      </g>
    </g>
  </g>
</svg>